<?xml version="1.0" encoding="utf-8"?>
<!-- Generator: Adobe Illustrator 20.1.0, SVG Export Plug-In . SVG Version: 6.00 Build 0)  -->
<svg version="1.1" id="Layer_1" xmlns="http://www.w3.org/2000/svg" xmlns:xlink="http://www.w3.org/1999/xlink" x="0px" y="0px"
	 viewBox="0 0 249 249" style="enable-background:new 0 0 249 249;" xml:space="preserve">
<style type="text/css">
	.st0{fill:none;stroke:#231F20;stroke-linecap:round;stroke-miterlimit:10;}
	.st1{fill:none;stroke:#000000;stroke-miterlimit:10;}
	.st2{fill:none;stroke:#000000;stroke-width:3;stroke-miterlimit:10;}
</style>
<g id="XMLID_2_">
	<g>
		<path d="M188.2,45.3c8.6,0,15.5,7,15.5,15.5c0,8.6-7,15.5-15.5,15.5c-8.6,0-15.5-6.9-15.5-15.5C172.6,52.3,179.6,45.3,188.2,45.3z
			"/>
		<path d="M124,63.2c34.1,0,61.7,27.6,61.7,61.7s-27.6,61.7-61.7,61.7S62.3,159,62.3,124.9S89.9,63.2,124,63.2z M170.6,125.9
			c0-25.4-20.6-45.9-45.9-45.9c-25.4,0-45.9,20.6-45.9,45.9s20.6,45.9,45.9,45.9C150,171.9,170.6,151.3,170.6,125.9z"/>
		<path d="M243.8,73.4v102.9c0,37.8-30.6,68.4-68.4,68.4h-103C34.6,244.7,4,214.1,4,176.3V73.4C4,35.6,34.6,5,72.4,5h102.9
			C213.1,5,243.8,35.6,243.8,73.4z M223.8,174.1V76.7c0-28-22.7-50.7-50.7-50.7H75.7C47.7,26,25,48.7,25,76.7v97.4
			c0,28,22.7,50.7,50.7,50.7h97.4C201.1,224.8,223.8,202.1,223.8,174.1z"/>
	</g>
	<g>
		<path class="st0" d="M172.6,60.8c0-8.6,6.9-15.5,15.5-15.5s15.5,7,15.5,15.5c0,8.6-7,15.5-15.5,15.5
			C179.6,76.4,172.6,69.4,172.6,60.8z"/>
		<path class="st0" d="M62.3,124.8c0-34,27.6-61.7,61.7-61.7s61.7,27.6,61.7,61.7s-27.6,61.7-61.7,61.7S62.3,158.9,62.3,124.8z"/>
		<path class="st0" d="M78.7,125.9c0-25.4,20.6-45.9,45.9-45.9c25.4,0,45.9,20.6,45.9,45.9s-20.6,45.9-45.9,45.9
			C99.3,171.9,78.7,151.3,78.7,125.9z"/>
		<path class="st1" d="M175.3,244.8H72.4C34.6,244.8,4,214.2,4,176.4v-103C4,35.6,34.6,5,72.4,5h102.9c37.8,0,68.4,30.6,68.4,68.4
			v102.9C243.8,214.1,213.1,244.8,175.3,244.8z"/>
		<path class="st1" d="M173.1,224.8H75.7c-28,0-50.7-22.7-50.7-50.7V76.7C25,48.7,47.7,26,75.7,26h97.4c28,0,50.7,22.7,50.7,50.7
			v97.4C223.8,202.1,201.1,224.8,173.1,224.8z"/>
	</g>
</g>
<g id="XMLID_3_">
	<g>
		<path d="M140.1,85.6c-0.2,0.3-0.3,0.6-0.4,0.9c-0.4,1.4-0.6,3.6-0.6,4.7c0,0-16.2,1.9-23.9,0c0.6-1.6,1.7-4.4,1.7-4.9
			c0-0.3,0.1-0.6,0.3-1.1l0,0c3.8-1.1,7.5-1.2,11.4-1.4C132.6,83.7,140.1,85.6,140.1,85.6z"/>
		<path d="M111.5,143.6c-0.2-2.4,5.7-19,14.8-32.9c1.2-1.8,2.4-3.5,3.7-5.2c3.7-4.8,8-8.9,12.3-11.2c3.2,2.5,7.8,6.3,8.6,8.5
			c1.1,2.9,0.6,5.8,0.3,6.6c-0.7,2.1-1.9,3.3-3.8,5.1c-2.3,2.2-3.1,2.1-7,5.1c-2.8,2.1-4.2,3.1-5.6,4.9c-2.2,2.7-3.1,5.2-3.4,6.1
			c-0.2,0.6-0.8,2.4-1,6.6c-0.2,2.6-0.1,4.6,0.2,9c0.5,9,0.5,15.4-0.3,18.5c-1.1,4-9,4.6-11.3,3.1c-1.7-1.1-2.5-2.5-3.1-3.4
			c-2.8-5-5.1-20.1-5.1-20.6L111.5,143.6z"/>
		<path d="M110.8,102.7c0.3-1.2,1-3.7,1.9-6.2l0,0c0.1,0.4,0.3,0.7,0.5,1c0.3,0.4,0.7,0.7,1.1,1c3.6,2.5,11.3,5.8,15.6,7
			c-1.3,1.6-2.5,3.4-3.7,5.2C121.9,109.1,114.7,105.4,110.8,102.7L110.8,102.7L110.8,102.7z"/>
	</g>
	<g>
		<path class="st2" d="M139.1,91.2c0,0.4,0.3,0.9,0.8,1.3c0.6,0.4,1.5,1.1,2.5,1.9c3.2,2.5,7.8,6.3,8.6,8.5c1.1,2.9,0.6,5.8,0.3,6.6
			c-0.7,2.1-1.9,3.3-3.8,5.1c-2.3,2.2-3.1,2.1-7,5.1c-2.8,2.1-4.2,3.1-5.6,4.9c-2.2,2.7-3.1,5.2-3.4,6.1c-0.2,0.6-0.8,2.4-1,6.6
			c-0.2,2.6-0.1,4.6,0.2,9c0.5,9,0.5,15.4-0.3,18.5c-1.1,4-9,4.6-11.3,3.1c-1.7-1.1-2.5-2.5-3.1-3.4c-2.8-5-5.1-20.1-5.1-20.6l0,0
			c0,0-0.1-2.6-0.3-5.7c-0.5-6.4-1-7.8-1.4-12.3c-0.5-6-0.2-10.6,0-12.4c0.2-2.3,0.5-5.9,1.7-10.5l0,0c0.3-1.2,1-3.7,1.9-6.2
			c0.6-1.5,1.3-3,2-4.1c0-0.1,0.2-0.5,0.5-1.2c0.6-1.6,1.7-4.4,1.7-4.9c0-0.3,0.1-0.6,0.3-1.1c0.8-2.6,3-7.3,3-7.3s5.7-1.6,8.7-1.3
			c4.2,0.4,6.8,2.2,9.1,3.6c2.7,1.8,3.1,2.8,3.1,3.4c0,0.8-0.5,1.2-0.9,1.9c-0.2,0.3-0.3,0.6-0.4,0.9
			C139.3,87.9,139.1,90,139.1,91.2z"/>
		<path class="st2" d="M142.4,94.4c-4.4,2.3-8.6,6.3-12.3,11.2c-1.3,1.6-2.5,3.4-3.7,5.2c-9.1,14-15.1,30.6-14.8,32.9"/>
		<path class="st2" d="M117.3,85.3c3.8-1.1,7.5-1.2,11.4-1.4c3.9-0.2,11.4,1.7,11.4,1.7"/>
		<path class="st2" d="M115.2,91.2L115.2,91.2c7.7,1.9,23.9,0,23.9,0"/>
		<path class="st2" d="M112.8,96.5c0.1,0.4,0.3,0.7,0.5,1c0.3,0.4,0.7,0.7,1.1,1c3.6,2.5,11.3,5.8,15.6,7"/>
		<path class="st2" d="M110.9,102.7c3.8,2.7,11,6.4,15.5,8"/>
	</g>
</g>
</svg>
