<?xml version="1.0" encoding="utf-8"?>
<!-- Generator: Adobe Illustrator 20.1.0, SVG Export Plug-In . SVG Version: 6.00 Build 0)  -->
<svg version="1.1" id="Layer_1" xmlns="http://www.w3.org/2000/svg" xmlns:xlink="http://www.w3.org/1999/xlink" x="0px" y="0px"
	 viewBox="0 0 2 1.3" style="enable-background:new 0 0 2 1.3;" xml:space="preserve">
<style type="text/css">
	.st0{fill:none;stroke:#231F20;stroke-linecap:round;stroke-miterlimit:10;}
	.st1{fill:none;stroke:#000000;stroke-miterlimit:10;}
	.st2{fill:none;stroke:#000000;stroke-width:3;stroke-miterlimit:10;}
</style>
<g id="XMLID_2_">
	<g>
		<path d="M343.1,43.4v102.9c0,37.8-30.6,68.4-68.4,68.4H171.7c-37.8,0-68.4-30.6-68.4-68.4V43.4C103.3,5.6,134-25,171.7-25h102.9
			C312.5-25,343.1,5.6,343.1,43.4z M323.1,144.1V46.7c0-28-22.7-50.7-50.7-50.7H175c-28,0-50.7,22.7-50.7,50.7v97.4
			c0,28,22.7,50.7,50.7,50.7h97.4C300.4,194.8,323.1,172.1,323.1,144.1z"/>
		<path d="M287.5,15.3c8.6,0,15.5,6.9,15.5,15.5c0,8.6-7,15.5-15.5,15.5c-8.6,0-15.5-7-15.5-15.5C272,22.3,278.9,15.3,287.5,15.3z"
			/>
		<path d="M223.3,33.2c34.1,0,61.7,27.6,61.7,61.7c0,34.1-27.6,61.7-61.7,61.7s-61.7-27.6-61.7-61.7
			C161.7,60.8,189.3,33.2,223.3,33.2z M269.9,95.9c0-25.4-20.6-45.9-45.9-45.9C198.6,50,178,70.6,178,95.9s20.6,45.9,45.9,45.9
			C249.4,141.9,269.9,121.3,269.9,95.9z"/>
	</g>
	<g>
		<path class="st0" d="M272,30.8c0-8.6,7-15.5,15.5-15.5c8.6,0,15.5,6.9,15.5,15.5c0,8.6-7,15.5-15.5,15.5
			C278.9,46.4,272,39.4,272,30.8z"/>
		<path class="st0" d="M161.7,94.8c0-34.1,27.6-61.7,61.7-61.7S285,60.8,285,94.8c0,34.1-27.6,61.7-61.7,61.7
			S161.7,128.9,161.7,94.8z"/>
		<path class="st0" d="M178,95.9C178,70.6,198.6,50,224,50c25.4,0,45.9,20.6,45.9,45.9s-20.6,45.9-45.9,45.9
			C198.6,141.9,178,121.3,178,95.9z"/>
		<path class="st1" d="M274.7,214.8H171.7c-37.8,0-68.4-30.6-68.4-68.4V43.4C103.3,5.6,134-25,171.7-25h102.9
			c37.8,0,68.4,30.6,68.4,68.4v102.9C343.1,184.1,312.5,214.8,274.7,214.8z"/>
		<path class="st1" d="M272.4,194.8H175c-28,0-50.7-22.7-50.7-50.7V46.7C124.3,18.7,147-4,175-4h97.4c28,0,50.7,22.7,50.7,50.7v97.4
			C323.1,172.1,300.4,194.8,272.4,194.8z"/>
	</g>
</g>
<g id="XMLID_3_">
	<g>
		<path d="M239.5,55.6c-0.2,0.3-0.3,0.6-0.4,0.9c-0.4,1.4-0.6,3.6-0.6,4.7c0,0-16.2,1.9-23.9,0c0.6-1.6,1.7-4.4,1.7-4.9
			c0-0.3,0.1-0.6,0.3-1.1l0,0c3.8-1.1,7.5-1.2,11.4-1.4C231.9,53.7,239.5,55.6,239.5,55.6z"/>
		<path d="M210.9,113.6c-0.2-2.4,5.7-19,14.8-32.9c1.2-1.8,2.4-3.5,3.7-5.2c3.7-4.8,8-8.9,12.3-11.2c3.2,2.5,7.8,6.3,8.6,8.5
			c1.1,2.9,0.6,5.8,0.3,6.6c-0.7,2.1-1.9,3.3-3.8,5.1c-2.3,2.2-3.1,2.1-7,5.1c-2.8,2.1-4.2,3.1-5.6,4.9c-2.2,2.7-3.1,5.2-3.4,6.1
			c-0.2,0.6-0.8,2.4-1,6.6c-0.2,2.6-0.1,4.6,0.2,9c0.5,9,0.5,15.4-0.3,18.5c-1.1,4-9,4.6-11.3,3.1c-1.7-1.1-2.5-2.5-3.1-3.4
			c-2.8-5-5.1-20.1-5.1-20.6L210.9,113.6z"/>
		<path d="M210.1,72.7c0.3-1.2,1-3.7,1.9-6.2l0,0c0.1,0.4,0.3,0.7,0.5,1c0.3,0.4,0.7,0.7,1.1,1c3.6,2.5,11.3,5.8,15.6,7
			c-1.3,1.6-2.5,3.4-3.7,5.2C221.2,79.1,214,75.4,210.1,72.7L210.1,72.7C210.1,72.7,210.1,72.7,210.1,72.7z"/>
	</g>
	<g>
		<path class="st2" d="M238.4,61.2c0,0.4,0.3,0.9,0.8,1.3c0.6,0.4,1.5,1.1,2.5,1.9c3.2,2.5,7.8,6.3,8.6,8.5c1.1,2.9,0.6,5.8,0.3,6.6
			c-0.7,2.1-1.9,3.3-3.8,5.1c-2.3,2.2-3.1,2.1-7,5.1c-2.8,2.1-4.2,3.1-5.6,4.9c-2.2,2.7-3.1,5.2-3.4,6.1c-0.2,0.6-0.8,2.4-1,6.6
			c-0.2,2.6-0.1,4.6,0.2,9c0.5,9,0.5,15.4-0.3,18.5c-1.1,4-9,4.6-11.3,3.1c-1.7-1.1-2.5-2.5-3.1-3.4c-2.8-5-5.1-20.1-5.1-20.6
			c0,0,0,0,0,0s-0.1-2.6-0.3-5.7c-0.5-6.4-1-7.8-1.4-12.3c-0.5-6-0.2-10.6,0-12.4c0.2-2.3,0.5-5.9,1.7-10.5c0,0,0,0,0,0
			c0.3-1.2,1-3.7,1.9-6.2c0.6-1.5,1.3-3,2-4.1c0-0.1,0.2-0.5,0.5-1.2c0.6-1.6,1.7-4.4,1.7-4.9c0-0.3,0.1-0.6,0.3-1.1
			c0.8-2.6,3-7.3,3-7.3s5.7-1.6,8.7-1.3c4.2,0.4,6.8,2.2,9.1,3.6c2.7,1.8,3.1,2.8,3.1,3.4c0,0.8-0.5,1.2-0.9,1.9
			c-0.2,0.3-0.3,0.6-0.4,0.9C238.6,57.9,238.5,60,238.4,61.2z"/>
		<path class="st2" d="M241.7,64.4c-4.4,2.3-8.6,6.3-12.3,11.2c-1.3,1.6-2.5,3.4-3.7,5.2c-9.1,14-15.1,30.6-14.8,32.9"/>
		<path class="st2" d="M216.6,55.3c3.8-1.1,7.5-1.2,11.4-1.4c3.9-0.2,11.4,1.7,11.4,1.7"/>
		<path class="st2" d="M214.5,61.2C214.6,61.2,214.6,61.2,214.5,61.2c7.7,1.9,23.9,0,23.9,0"/>
		<path class="st2" d="M212.1,66.5c0.1,0.4,0.3,0.7,0.5,1c0.3,0.4,0.7,0.7,1.1,1c3.6,2.5,11.3,5.8,15.6,7"/>
		<path class="st2" d="M210.2,72.7c3.8,2.7,11,6.4,15.5,8"/>
	</g>
</g>
</svg>
