<?xml version="1.0" encoding="utf-8"?>
<!-- Generator: Adobe Illustrator 20.1.0, SVG Export Plug-In . SVG Version: 6.00 Build 0)  -->
<svg version="1.1" id="Layer_1" xmlns="http://www.w3.org/2000/svg" xmlns:xlink="http://www.w3.org/1999/xlink" x="0px" y="0px"
	 viewBox="0 0 150 194.1" style="enable-background:new 0 0 150 194.1;" xml:space="preserve">
<style type="text/css">
	.st0{fill:#FFFFFF;}
	.st1{fill:#7C7C7C;}
</style>
<g>
	<g id="XMLID_1_">
		<g>
			<path class="st0" d="M150,0c0,64.6,0,129.3,0,193.9c-54.2,0-108.5,0-162.7,0c0-64.6,0-129.3,0-193.9C41.5,0,95.8,0,150,0z
				 M114.2,102.3c12.7-13.1,12.4-31.2,1-43.1c-10.8-11.3-22.8-11-39.2,1.3c-16.1-11.3-27-12.5-38-4.5c-13.6,9.8-16.9,30.1-5,43.3
				c11.1,12.3,23,22.2,35.9,32.8c1,0.8,5.7,4.5,5.7,4.5s4.3-3.6,5.3-4.4C91.7,122.7,103.6,113.2,114.2,102.3z"/>
			<path class="st1" d="M115.2,59.3c11.4,11.9,11.7,30-1,43.1c-10.5,10.9-22.5,20.4-34.3,29.9c-1,0.8-5.3,4.4-5.3,4.4
				s-4.7-3.7-5.7-4.5C56,121.6,44.1,111.7,33,99.4c-11.9-13.2-8.6-33.5,5-43.3c11-7.9,21.8-6.8,38,4.5
				C92.4,48.3,104.3,47.9,115.2,59.3z M114,96.7c8.7-11.4,6.6-26.9-3.4-36.2c-15.4-14.4-33.4,4.7-34.8,5.9
				C61.7,53.8,50.5,51.9,40,59.6c-10.8,7.9-14,25.1-5.1,35.7c11.4,13.7,25.3,23.7,39.8,36c10.6-8.8,18.6-14.5,27-21.9
				C106.1,105.6,110.5,101.4,114,96.7z"/>
			<path class="st0" d="M110.6,60.5c10,9.3,12,24.8,3.4,36.2c-3.6,4.7-7.9,8.9-12.3,12.8c-8.4,7.3-16.4,13.1-27,21.9
				C60.2,119,46.3,109,34.9,95.3C26,84.6,29.2,67.4,40,59.6c10.5-7.6,21.7-5.8,35.9,6.8C77.2,65.2,95.2,46.1,110.6,60.5z"/>
		</g>
		<g>
		</g>
	</g>
</g>
</svg>
