<?xml version="1.0" encoding="utf-8"?>
<!-- Generator: Adobe Illustrator 20.1.0, SVG Export Plug-In . SVG Version: 6.00 Build 0)  -->
<svg version="1.1" id="Layer_1" xmlns="http://www.w3.org/2000/svg" xmlns:xlink="http://www.w3.org/1999/xlink" x="0px" y="0px"
	 viewBox="0 0 67.5 63" style="enable-background:new 0 0 67.5 63;" xml:space="preserve">
<style type="text/css">
	.st0{fill:#7E7E7E;}
	.st1{fill:none;stroke:#7D7D7D;stroke-width:3;stroke-linecap:round;stroke-linejoin:round;stroke-miterlimit:10;}
	.st2{fill:none;stroke:#7D7D7D;stroke-linejoin:round;stroke-miterlimit:10;}
</style>
<g id="XMLID_1_">
	<g>
		<rect x="37.1" y="31.5" class="st0" width="9.3" height="2.5"/>
		<rect x="34.6" y="34" class="st0" width="2.5" height="9.3"/>
		<rect x="34.6" y="31.5" class="st0" width="2.5" height="2.5"/>
		<rect x="34.6" y="22.3" class="st0" width="2.5" height="9.3"/>
		<rect x="25.4" y="31.5" class="st0" width="9.3" height="2.5"/>
	</g>
	<g>
		<path class="st1" d="M20.5,18.6c1.2-1.2,2.5-2.3,4-3.3"/>
		<path class="st1" d="M14.8,32.8c0-3.4,0.8-6.7,2.3-9.5"/>
		<path class="st1" d="M22.5,48.8c-3.7-3-6.4-7.3-7.3-12.2"/>
		<path class="st1" d="M41.7,52.7c-1.8,0.5-3.8,0.8-5.8,0.8c-3.8,0-7.4-1-10.5-2.8"/>
		<path class="st1" d="M35,12c0.3,0,0.6,0,0.9,0c11.6,0,21,9.3,21,20.8c0,8.2-4.9,15.4-12,18.7"/>
		<polygon class="st2" points="37.1,34 37.1,43.3 34.6,43.3 34.6,34 34.6,31.5 34.6,22.3 37.1,22.3 37.1,31.5 		"/>
		<polygon class="st2" points="37.1,31.5 46.4,31.5 46.4,34 37.1,34 34.6,34 25.4,34 25.4,31.5 34.6,31.5 		"/>
	</g>
</g>
</svg>
